<svg width="293" height="293" viewBox="0 0 293 293" fill="none" xmlns="http://www.w3.org/2000/svg">
<path d="M107.888 134.023C134.914 115.75 197.008 67.1019 229.514 95.4082C262.02 123.714 244.228 259.635 148.451 244.999C112.471 239.501 58.1093 236.466 50.4864 219.606C37.8166 191.561 91.0132 145.431 107.888 134.023Z" fill="#E9E8E8"/>
<path d="M149.265 63.1701L119.552 193.53L121.456 193.964L151.169 63.6042L149.265 63.1701Z" fill="#1D252E"/>
<path d="M137.883 182.275C167.787 182.275 192.03 158.033 192.03 128.129C192.03 98.2246 167.787 73.9824 137.883 73.9824C107.979 73.9824 83.7368 98.2246 83.7368 128.129C83.7368 158.033 107.979 182.275 137.883 182.275Z" fill="#FAE7AE"/>
<mask id="mask0_181_1547" style="mask-type:luminance" maskUnits="userSpaceOnUse" x="82" y="74" width="110" height="109">
<path d="M136.935 182.443C166.839 182.443 191.081 158.201 191.081 128.296C191.081 98.3921 166.839 74.1499 136.935 74.1499C107.031 74.1499 82.7886 98.3921 82.7886 128.296C82.7886 158.201 107.031 182.443 136.935 182.443Z" fill="white"/>
</mask>
<g mask="url(#mask0_181_1547)">
<path d="M165.456 110.853C165.82 107.215 161.286 99.4552 149.888 103.069C138.49 106.683 130.706 119.472 139.601 130.313C148.496 141.154 150.721 150.051 146.829 157.003C142.937 163.954 145.718 171.177 152.391 167.287C159.064 163.398 177.132 149.219 179.356 141.161C181.581 133.104 176.297 123.647 174.908 121.701C173.518 119.755 165.178 113.634 165.456 110.853Z" fill="#1D252E"/>
<path d="M185.749 98.9034C177.965 102.519 170.181 103.63 169.905 106.687C169.629 109.744 172.405 114.191 176.575 116.972C180.746 119.753 183.527 124.199 183.248 126.423C182.135 138.656 185.749 144.492 188.53 146.445C191.311 148.398 199.649 106.683 193.257 100.857C186.864 95.0309 185.749 98.9034 185.749 98.9034Z" fill="#1D252E"/>
<path d="M108.262 115.421C108.663 116.266 109.312 116.986 109.61 117.863C109.908 118.74 109.825 119.724 109.735 120.661C109.446 123.645 109.159 126.629 108.873 129.612C108.609 132.342 108.182 135.387 106.018 137.072C103.538 139.008 99.255 138.742 98.0488 141.647C97.5043 142.956 97.8583 144.438 97.9682 145.849C98.1066 147.932 97.7028 150.016 96.796 151.896C95.8892 153.776 94.5105 155.39 92.7943 156.578C90.9899 157.799 88.6117 158.495 86.6291 157.594C85.6524 157.147 84.8589 156.356 84.1362 155.548C77.446 148.079 74.0985 137.985 73.7273 127.957C73.3098 116.747 75.6807 92.6626 89.5762 89.7301C94.9479 88.5972 100.332 91.0584 103.845 95.1018C106.134 97.7398 107.58 101.003 107.996 104.47C108.436 107.896 106.766 112.259 108.262 115.421Z" fill="#1D252E"/>
<path d="M145.578 89.674C146.179 89.11 146.633 88.3994 147.268 87.8769C150.034 85.5915 154.105 87.8476 157.701 87.8769C162.301 87.8965 166.003 84.0557 168.242 80.0318C168.618 79.3531 168.974 78.6254 168.974 77.849C168.974 71.1393 131.468 65.8726 121.709 70.5582C111.949 75.2437 128.807 80.7131 130.225 85.0421C131.834 89.9255 141.616 93.4 145.578 89.674Z" fill="#1D252E"/>
<path d="M99.2477 157.259C100.937 153.951 102.444 150.291 105.515 148.203C106.88 147.275 108.712 146.738 110.169 147.51C110.929 147.915 111.476 148.616 112.123 149.194C114.393 151.263 118.486 148.169 120.544 149.683C122.602 151.197 121.081 153.27 121.276 154.852C121.367 155.584 121.467 156.334 121.845 156.964C122.163 157.494 122.654 157.892 123.1 158.317C125.745 160.834 127.007 164.421 128.846 167.578C130.684 170.735 133.702 173.743 137.348 173.577C138.283 173.533 139.479 173.411 139.892 174.251C140.092 174.659 139.997 175.142 139.892 175.586C139.337 178.082 138.693 180.741 136.818 182.482C134.466 184.679 130.911 184.767 127.7 184.743C122.502 184.699 117.011 184.577 112.582 181.854C108.026 179.054 104.888 173.672 99.6262 172.71C97.7485 172.366 95.7903 172.649 93.9298 172.222C90.3747 171.392 89.5494 167.79 91.8275 165.173C94.3864 162.221 97.3042 161.066 99.2477 157.259Z" fill="#1D252E"/>
</g>
<path d="M143.67 197.309C138.643 197.305 133.633 196.74 128.732 195.624L120.301 193.71L121.426 188.741L129.857 190.655C137.812 192.561 146.065 192.869 154.139 191.562C162.213 190.254 169.948 187.358 176.894 183.039C183.841 178.721 189.861 173.067 194.607 166.405C199.352 159.742 202.728 152.205 204.539 144.228C206.35 136.252 206.559 127.996 205.156 119.938C203.753 111.879 200.764 104.18 196.363 97.2855C191.962 90.3909 186.237 84.4383 179.519 79.7726C172.801 75.107 165.223 71.821 157.226 70.1052L148.795 68.191L149.918 63.2393L158.349 65.1535C174.38 68.8007 188.506 78.2213 198.035 91.6182C207.563 105.015 211.826 121.451 210.011 137.79C208.196 154.13 200.43 169.229 188.193 180.209C175.957 191.188 160.107 197.278 143.668 197.318L143.67 197.309Z" fill="#1D252E"/>
<path d="M106.493 218.568H153.632C154.201 218.568 154.764 218.68 155.29 218.898C155.815 219.116 156.293 219.435 156.695 219.837C157.097 220.239 157.416 220.717 157.634 221.242C157.851 221.768 157.963 222.331 157.963 222.9V229.839H102.162V222.897C102.162 221.749 102.619 220.648 103.431 219.836C104.243 219.024 105.345 218.568 106.493 218.568Z" fill="white"/>
<path d="M153.092 218.568H153.642C154.21 218.568 154.773 218.68 155.298 218.898C155.824 219.115 156.301 219.434 156.703 219.836C157.105 220.238 157.424 220.716 157.641 221.241C157.859 221.766 157.971 222.329 157.971 222.897V229.839H102.162V222.897C102.162 221.749 102.619 220.648 103.431 219.836C104.243 219.024 105.345 218.568 106.493 218.568H107.629" stroke="#1D252E" stroke-width="4" stroke-miterlimit="10"/>
<path d="M150.751 211.204H109.372V221.711H150.751V211.204Z" fill="#1D252E"/>
<path d="M130.761 193.143H127.831V211.783H130.761V193.143Z" fill="#1D252E"/>
<path d="M137.131 182.651C167.035 182.651 191.278 158.409 191.278 128.505C191.278 98.6006 167.035 74.3584 137.131 74.3584C107.227 74.3584 82.9849 98.6006 82.9849 128.505C82.9849 158.409 107.227 182.651 137.131 182.651Z" stroke="#1D252E" stroke-width="4" stroke-miterlimit="10"/>
<path d="M150.185 71.8051L146.881 71.1706C145.044 70.8179 143.269 72.021 142.917 73.8578L142.905 73.9154C142.553 75.7522 143.756 77.5271 145.593 77.8798L148.897 78.5143C150.734 78.8671 152.509 77.664 152.861 75.8272L152.872 75.7696C153.225 73.9328 152.022 72.1579 150.185 71.8051Z" fill="#1D252E"/>
<path d="M120.904 185.404L124.196 186.102C126.026 186.489 127.823 185.321 128.211 183.491L128.223 183.434C128.611 181.604 127.442 179.806 125.613 179.418L122.321 178.721C120.492 178.333 118.694 179.501 118.306 181.331L118.294 181.388C117.906 183.218 119.075 185.016 120.904 185.404Z" fill="#1D252E"/>
</svg>
